<?xml version="1.0" encoding="UTF-8" standalone="no"?>
<svg id="Layer_1" data-name="Layer 1" xmlns="http://www.w3.org/2000/svg" viewBox="0 0 24 24">
  <defs>
     <style>.c1{fill:#2196F3;}.c2{fill:#FFFFFF;}</style>
  </defs>
  <!--<path class="col1" d="M12,0A12,12,0,1,0,24,12,12,12,0,0,0,12,0Zm0,22A10,10,0,1,1,22,12,10,10,0,0,1,12,22Z"/>-->
  <circle class="c1" cx="12" cy="12" r="12"/>

  <path class="c2" d="M17,7.25H7a1,1,0,0,0,0,2H17a1,1,0,0,0,0-2Z"/>
  <path class="c2" d="M17,11H7a1,1,0,0,0,0,2H17a1,1,0,0,0,0-2Z"/>
  <path class="c2" d="M17,14.75H7a1,1,0,0,0,0,2H17a1,1,0,0,0,0-2Z"/>
</svg>
