<?xml version="1.0"?>
<svg width="512" height="512" xmlns="http://www.w3.org/2000/svg" xmlns:svg="http://www.w3.org/2000/svg">
 <defs>
  <style>.c1{fill:#2196F3;}</style>
 </defs>
 <g class="layer">
  <title>Layer 1</title>
  <circle class="c1" cx="257" cy="259" fill="black" id="svg_1" r="256" transform="matrix(1, 0, 0, 1, 0, 0)"/>
  <path d="m346.400372,75.999991l-159.867812,0c-28.092868,0 -50.867186,24.41884 -50.867186,54.541912l0,311.666919c0.000681,3.152703 1.773304,5.994957 4.490826,7.1995c0.879499,0.392992 1.823036,0.593871 2.77611,0.59241c1.92863,0.003652 3.779597,-0.814473 5.14483,-2.27541l82.055672,-88.108413c32.119078,33.987251 76.373332,81.033092 81.12576,86.830092c2.221569,3.58368 6.732151,4.558125 10.074383,2.176066c1.209226,-0.861953 2.149356,-2.092063 2.70049,-3.531817c0.468021,-0.87291 0.666266,-1.881688 0.566803,-2.88316l0,-327.250009c0,-12.909575 9.760325,-23.375001 21.800126,-23.375001c4.013267,0 7.266935,-3.488719 7.266935,-7.79191s-3.253668,-7.79118 -7.266935,-7.79118l-0.000001,0.000001l-0.000001,0z" fill="#ffffff" id="svg_2"/>
  <g id="svg_4">
   <circle cx="382.000005" cy="389.50001" fill="#ED7161" id="svg_6" r="124.000003"/>
   <path d="m397.847095,389.50001l39.628934,-45.305592c4.382045,-5.009753 4.382045,-13.107358 0,-18.117112s-11.465045,-5.009753 -15.847091,0l-39.628934,45.305592l-39.628934,-45.305592c-4.382045,-5.009753 -11.465045,-5.009753 -15.847091,0s-4.382045,13.107358 0,18.117112l39.628934,45.305592l-39.628934,45.305592c-4.382045,5.009753 -4.382045,13.107358 0,18.117112c2.185419,2.49847 5.054482,3.754112 7.923545,3.754112s5.738126,-1.255641 7.923545,-3.754112l39.628934,-45.305592l39.628934,45.305592c2.185419,2.49847 5.054482,3.754112 7.923545,3.754112s5.738126,-1.255641 7.923545,-3.754112c4.382045,-5.009753 4.382045,-13.107358 0,-18.117112l-39.628934,-45.305592l0.000003,0z" fill="#FFFFFF" id="svg_7"/>
  </g>
 </g>
</svg>