<?xml version="1.0"?>
<svg width="144" height="144" xmlns="http://www.w3.org/2000/svg" xmlns:svg="http://www.w3.org/2000/svg" xmlns:se="http://svg-edit.googlecode.com" data-name="Layer 1">
 <defs>
  <style>.c1{fill:#2196F3;}.c2{fill:#FFFFFF;}</style>
 </defs>
 <g class="layer">
  <title>Layer 1</title>
  <circle class="c1" cx="72" cy="72" fill="black" id="svg_1" r="72"/>
  <path class="c2" d="m25.66229,28.88486l45.72241,8.94088l45.72241,8.94088a1.559,1.559 0 0 0 1.82788,-1.22994a10.15176,10.15176 0 0 0 -8.01579,-11.91278l-15.172,-2.96684l0.79656,-4.07352a11.10952,11.10952 0 0 0 -8.76106,-13.02036l-22.44858,-4.38975a11.1096,11.1096 0 0 0 -13.02037,8.76107l-0.79657,4.0735l-15.172,-2.96685a10.15176,10.15176 0 0 0 -11.91283,8.01585a1.559,1.559 0 0 0 1.22994,1.82788l0,-0.00002zm42.40511,-12.06112l14.3016,2.79662a8.2641,8.2641 0 0 1 6.5245,9.69647l0,0l-15.2613,-2.9843l-15.26127,-2.98428l0,0a8.2641,8.2641 0 0 1 9.69647,-6.52451z" fill="black" id="svg_2" transform="matrix(1, 0, 0, 1, 0, 0)"/>
  <path class="c2" d="m116.58839,52.36161l-93.17678,0a1.559,1.559 0 0 0 -1.55785,1.55785l0,5.90918c0,0.85949 16.14275,61.05238 16.14275,61.05238a11.08149,11.08149 0 0 0 11.03938,10.153l41.92823,0a11.08149,11.08149 0 0 0 11.03938,-10.15302s16.14275,-60.19289 16.14275,-61.05238l0,-5.90916a1.559,1.559 0 0 0 -1.55786,-1.55785zm-61.934,64.2194a2.60793,2.60793 0 0 1 -3.19666,-1.84821c-4.44239,-16.61345 -8.95983,-33.53068 -11.91535,-44.72956a2.61069,2.61069 0 1 1 5.04851,-1.33243c2.95407,11.19159 7.47077,28.10409 11.911,44.71353a2.61043,2.61043 0 0 1 -1.84754,3.19666l0.00004,0.00001zm17.95316,-2.52243a2.61095,2.61095 0 0 1 -5.22189,0l0,-44.72158a2.61095,2.61095 0 0 1 5.22189,0l0,44.72158zm27.8498,-44.05533c-3.08885,11.70554 -7.9902,30.05319 -11.91535,44.72992a2.61073,2.61073 0 1 1 -5.04414,-1.34918c3.9237,-14.67272 8.8236,-33.01491 11.911,-44.71316a2.61069,2.61069 0 1 1 5.04851,1.33243l-0.00002,-0.00001z" fill="black" id="svg_3"/>
 </g>
</svg>