<?xml version="1.0"?>
<svg width="55" height="55" xmlns="http://www.w3.org/2000/svg" xmlns:svg="http://www.w3.org/2000/svg">
 <defs>
  <style>.c1{fill:#2196F3;}</style>
 </defs>
 <g class="layer">
  <title>Layer 1</title>
  <circle class="c1" cx="27.250001" cy="27.25" fill="black" id="svg_2" r="26.5" transform="matrix(1, 0, 0, 1, 0, 0)"/>
  <circle cx="26.375001" cy="26.75" fill="#000000" fill-opacity="0" id="svg_4" r="7.5" stroke="#FFFFFF" stroke-width="5"/>
  <path d="m4.75,27.5s8.13636,-18 22.375,-18s22.375,18 22.375,18s-8.13636,18 -22.375,18s-22.375,-18 -22.375,-18z" fill="#000000" fill-opacity="0" id="svg_3" stroke="#FFFFFF" stroke-width="4"/>
  <g id="svg_5">
   <circle cx="41.500001" cy="41.5" fill="#ED7161" id="svg_6" r="12.75"/>
   <path d="m43.061292,41.5l3.904333,-3.757c0.431729,-0.415437 0.431729,-1.086937 0,-1.502375s-1.129562,-0.415437 -1.561292,0l-3.904333,3.757l-3.904333,-3.757c-0.431729,-0.415437 -1.129562,-0.415437 -1.561292,0s-0.431729,1.086938 0,1.502375l3.904333,3.757l-3.904333,3.757c-0.431729,0.415437 -0.431729,1.086937 0,1.502375c0.215312,0.207187 0.497979,0.311312 0.780646,0.311312s0.565333,-0.104125 0.780646,-0.311312l3.904333,-3.757l3.904333,3.757c0.215312,0.207187 0.497979,0.311312 0.780646,0.311312s0.565333,-0.104125 0.780646,-0.311312c0.431729,-0.415438 0.431729,-1.086938 0,-1.502375l-3.904333,-3.757z" fill="#FFFFFF" id="svg_7"/>
  </g>
 </g>
</svg>