<svg enable-background="new 0 0 32 32" version="1.1" xml:space="preserve" xmlns="http://www.w3.org/2000/svg" xmlns:xlink="http://www.w3.org/1999/xlink" width="38" height="38"><rect id="backgroundrect" width="100%" height="100%" x="0" y="0" fill="none" stroke="none" style="" class=""/><g class="currentLayer" style=""><title>Layer 1</title><path fill="#2196f3" fill-opacity="1" stroke="#2196f3" stroke-opacity="1" stroke-width="1" stroke-dasharray="none" stroke-linejoin="round" stroke-linecap="round" stroke-dashoffset="" fill-rule="nonzero" opacity="1" marker-start="" marker-mid="" marker-end="" d="M0.5677776420735082,19.000000339352184 C0.5677776420735082,9.122901685008697 8.816451235966714,1.1224517749904745 18.999998882748454,1.1224517749904745 C29.183546529530187,1.1224517749904745 37.43222012342339,9.122901685008697 37.43222012342339,19.000000339352184 C37.43222012342339,28.87709899369567 29.183546529530187,36.87754890371389 18.999998882748454,36.87754890371389 C8.816451235966714,36.87754890371389 0.5677776420735082,28.87709899369567 0.5677776420735082,19.000000339352184 z" id="svg_1" class=""/><path d="M31.077013470548273,13.33062108042756 l-1.0271509885787964,-1.7428760395050058 c-0.5669873456954957,-0.9630094513893142 -1.8231930047273635,-1.292062837600708 -2.806176500797272,-0.7365965709686285 L26.703404561179752,11.157057428388987 C24.64910258402216,12.318303935079966 22.08122511257517,10.866242661981975 22.08122511257517,8.54274336913148 V7.930925452261363 c0,-1.1119388127326966 -0.9193001347780239,-2.012558937072754 -2.0543019771575928,-2.012558937072754 h-2.0543019771575928 c-1.13500184237957,0 -2.0543019771575928,0.9006201243400584 -2.0543019771575928,2.012558937072754 v0.6118179168701188 c0,2.3234992928504945 -2.567877471446991,3.776566845417023 -4.6221794486045855,2.614314059257507 L10.75585831250536,10.85114846995393 C9.77287481643545,10.29568220332185 8.516669157403584,10.624735589533243 7.949681811708089,11.587745040922558 l-1.0271509885787964,1.7428760395050058 c-0.5669873456954957,0.9630094513893142 -0.23110897243022951,2.193689241409302 0.7518745236396812,2.7491555080413823 L8.214686766761417,16.385685546904003 c2.0543019771575928,1.1622527861595153 2.0543019771575928,4.066375332355499 0,5.228628118515014 l-0.5402814199924465,0.3059089584350593 c-0.9829834960699088,0.5554662666320801 -1.318861869335175,1.786146056652069 -0.7518745236396812,2.7491555080413823 l1.0271509885787964,1.7428760395050058 c0.5669873456954957,0.9630094513893142 1.8231930047273635,1.292062837600708 2.806176500797272,0.7365965709686285 L11.296139732497807,26.84294178393403 c2.0543019771575928,-1.1622527861595153 4.6221794486045855,0.2908147664070138 4.6221794486045855,2.614314059257507 V30.069073760061656 c0,1.1119388127326966 0.9193001347780239,2.012558937072754 2.0543019771575928,2.012558937072754 h2.0543019771575928 c1.13500184237957,0 2.0543019771575928,-0.9006201243400584 2.0543019771575928,-2.012558937072754 v-0.6118179168701188 c0,-2.3234992928504945 2.567877471446991,-3.776566845417023 4.6221794486045855,-2.614314059257507 l0.5402814199924465,0.3059089584350593 c0.9829834960699088,0.5554662666320801 2.2391891551017764,0.22641288042068544 2.806176500797272,-0.7365965709686285 l1.0271509885787964,-1.7428760395050058 c0.5669873456954957,-0.9630094513893142 0.23110897243022951,-2.193689241409302 -0.7518745236396812,-2.7491555080413823 L29.78485752691614,21.614313665419015 c-2.0543019771575928,-1.1622527861595153 -2.0543019771575928,-4.066375332355499 0,-5.228628118515014 l0.5402814199924465,-0.3059089584350593 C31.308122442978494,15.524310321836865 31.645027967232345,14.293630531816875 31.077013470548273,13.33062108042756 z" fill="none" id="XMLID_242_" stroke="#ffffff" stroke-linecap="round" stroke-linejoin="round" stroke-miterlimit="10" stroke-width="2" class="" opacity="1" stroke-opacity="1"/><circle cx="18.999999523162842" cy="18.99999976158142" fill="none" id="XMLID_224_" r="4" stroke="#ffffff" stroke-linecap="round" stroke-linejoin="round" stroke-miterlimit="10" stroke-width="2" class="" stroke-opacity="1"/><image style="color: rgb(33, 150, 243);" id="svg_7" x="50.56346321105957" y="31.989795684814453" width="1" height="0" xlink:href="logo/vector_paint_icon256.png" class=""/></g></svg>