<?xml version="1.0"?>
<svg width="512" height="512" xmlns="http://www.w3.org/2000/svg" xmlns:svg="http://www.w3.org/2000/svg">
 <defs>
  <style>.c1{fill:#2196F3;}</style>
 </defs>
 <g class="layer">
  <title>Layer 1</title>
  <circle class="c1" cx="256" cy="256" fill="black" id="svg_1" r="256" transform="matrix(1, 0, 0, 1, 0, 0)"/>
  <path d="m368.966997,73.999991l-169.401048,0c-29.768101,0 -53.900497,24.41884 -53.900497,54.541912l0,311.666919c0.000722,3.152703 1.87905,5.994957 4.758623,7.1995c0.931945,0.392992 1.931747,0.593871 2.941655,0.59241c2.043638,0.003652 4.004982,-0.814473 5.451626,-2.27541l86.948815,-88.108413c34.034403,33.987251 80.927626,81.033092 85.963451,86.830092c2.354046,3.58368 7.133603,4.558125 10.675138,2.176066c1.281335,-0.861953 2.277527,-2.092063 2.861526,-3.531817c0.49593,-0.87291 0.705997,-1.881688 0.600603,-2.88316l0,-327.250009c0,-12.909575 10.342352,-23.375001 23.100111,-23.375001c4.252586,0 7.700277,-3.488719 7.700277,-7.79191s-3.447691,-7.79118 -7.700277,-7.79118l-0.000002,0.000001z" fill="#ffffff" id="svg_2"/>
 </g>
</svg>